o Node1
usemtl mat0
v -6.485701560974121 49.85267639160156 -6.485701560974121
v -6.485701560974121 36.88126754760742 6.485701560974121
v -6.485701560974121 49.85267639160156 6.485701560974121
v 6.485701560974121 49.85267639160156 -6.485701560974121
v -6.485701560974121 36.88126754760742 -6.485701560974121
v -6.485701560974121 49.85267639160156 -6.485701560974121
v 6.485701560974121 49.85267639160156 6.485701560974121
v 6.485701560974121 36.88126754760742 -6.485701560974121
v 6.485701560974121 49.85267639160156 -6.485701560974121
v -6.485701560974121 49.85267639160156 6.485701560974121
v 6.485701560974121 36.88126754760742 6.485701560974121
v 6.485701560974121 49.85267639160156 6.485701560974121
v -6.485701560974121 36.88126754760742 -6.485701560974121
v 6.485701560974121 36.88126754760742 6.485701560974121
v -6.485701560974121 36.88126754760742 6.485701560974121
v 6.485701560974121 49.85267639160156 -6.485701560974121
v -6.485701560974121 49.85267639160156 6.485701560974121
v 6.485701560974121 49.85267639160156 6.485701560974121
v -6.122602462768555 22.001806259155273 -3.522700786590576
v -6.122602462768555 17.474740982055664 3.522700786590576
v -6.122602462768555 22.001806259155273 3.522700786590576
v 6.122602462768555 22.001806259155273 -3.522700786590576
v -6.122602462768555 17.474740982055664 -3.522700786590576
v -6.122602462768555 22.001806259155273 -3.522700786590576
v 6.122602462768555 22.001806259155273 3.522700786590576
v 6.122602462768555 17.474740982055664 -3.522700786590576
v 6.122602462768555 22.001806259155273 -3.522700786590576
v -6.122602462768555 22.001806259155273 3.522700786590576
v 6.122602462768555 17.474740982055664 3.522700786590576
v 6.122602462768555 22.001806259155273 3.522700786590576
v -6.122602462768555 17.474740982055664 -3.522700786590576
v 6.122602462768555 17.474740982055664 3.522700786590576
v -6.122602462768555 17.474740982055664 3.522700786590576
v 6.122602462768555 35.5830078125 -3.522700786590576
v -6.122602462768555 35.5830078125 3.522700786590576
v 6.122602462768555 35.5830078125 3.522700786590576
v 11.692448616027832 26.879405975341797 -2.2049527168273926
v 11.6924467086792 25.367055892944336 -0.000037444697227329016
v 11.6924467086792 25.367053985595703 -2.204956293106079
v 7.282607078552246 33.38353729248047 2.204908847808838
v 7.282608509063721 26.879405975341797 -2.2049548625946045
v 7.282607555389404 25.367055892944336 -0.00003983152055297978
v 7.282608509063721 26.879405975341797 -2.2049548625946045
v 11.6924467086792 25.367053985595703 -2.204956293106079
v 7.282608509063721 25.367053985595703 -2.20495867729187
v 11.6924467086792 23.854705810546875 -2.2049529552459717
v 11.69244384765625 17.350570678710938 2.2049121856689453
v 11.6924467086792 17.350553512573242 -2.2049243450164795
v 7.28260612487793 25.367053985595703 2.204878807067871
v 7.282604694366455 17.350570678710938 2.204909563064575
v 7.282607078552246 33.38353729248047 2.204908847808838
v 11.692444801330566 25.367053985595703 2.204881429672241
v 11.6924467086792 33.38353729248047 2.204911231994629
v 11.6924467086792 23.854705810546875 -2.2049529552459717
v 7.282607555389404 23.854707717895508 -2.204955577850342
v 7.282607078552246 17.350553512573242 -2.2049264907836914
v 11.69244384765625 17.350570678710938 2.2049121856689453
v 7.282604694366455 17.350570678710938 2.204909563064575
v 11.692444801330566 25.367053985595703 2.204881429672241
v 7.282608509063721 25.367053985595703 -2.20495867729187
v 11.692448616027832 33.38355255126953 -2.2049267292022705
v 7.282607078552246 33.38353729248047 2.204908847808838
v 11.6924467086792 33.38353729248047 2.204911231994629
v 7.28260612487793 25.367053985595703 2.204878807067871
v 11.69244384765625 17.350570678710938 2.2049121856689453
v 7.282607555389404 23.854707717895508 -2.204955577850342
v 7.282607078552246 17.350553512573242 -2.2049264907836914
v 11.6924467086792 33.38353729248047 2.204911231994629
v 11.692448616027832 33.38355255126953 -2.2049267292022705
v 7.282608985900879 33.38355255126953 -2.2049288749694824
v 11.692448616027832 33.38355255126953 -2.2049267292022705
v -7.282604694366455 17.350570678710938 2.2049098014831543
v -7.282607555389404 23.854707717895508 -2.204955577850342
v -7.282607555389404 25.367055892944336 -0.00003965072028222494
v -7.282607078552246 17.350553512573242 -2.2049262523651123
v -11.6924467086792 23.854705810546875 -2.204953193664551
v -7.282607555389404 23.854707717895508 -2.204955577850342
v -11.6924467086792 25.367055892944336 -0.00003764991197385825
v -11.69244384765625 17.350570678710938 2.2049121856689453
v -11.692444801330566 25.367053985595703 2.204881191253662
v -11.69244384765625 17.350570678710938 2.2049121856689453
v -7.28260612487793 25.367053985595703 2.20487904548645
v -11.692444801330566 25.367053985595703 2.204881191253662
v -11.69244384765625 17.350570678710938 2.2049121856689453
v -7.282607078552246 17.350553512573242 -2.2049262523651123
v -7.282604694366455 17.350570678710938 2.2049098014831543
v -7.282607078552246 33.38353729248047 2.204909086227417
v -11.692448616027832 33.38355255126953 -2.2049267292022705
v -11.6924467086792 33.38353729248047 2.20491099357605
v -7.282607078552246 33.38353729248047 2.204909086227417
v -11.6924467086792 33.38353729248047 2.20491099357605
v -11.6924467086792 33.38353729248047 2.20491099357605
v -7.282608509063721 26.879405975341797 -2.2049548625946045
v -11.692448616027832 33.38355255126953 -2.2049267292022705
v -7.282608985900879 33.38355255126953 -2.2049288749694824
v -11.6924467086792 25.367053985595703 -2.204956531524658
v -11.692448616027832 26.879405975341797 -2.2049527168273926
v -7.282608509063721 25.367053985595703 -2.20495867729187
v -7.282607078552246 33.38353729248047 2.204909086227417
v -7.282608509063721 26.879405975341797 -2.2049548625946045
v -7.282608985900879 33.38355255126953 -2.2049288749694824
v -7.282608509063721 25.367053985595703 -2.20495867729187
v -7.28260612487793 25.367053985595703 2.20487904548645
v -11.6924467086792 25.367053985595703 -2.204956531524658
v -11.6924467086792 23.854705810546875 -2.204953193664551
v -11.692448616027832 26.879405975341797 -2.2049527168273926
v -11.692448616027832 33.38355255126953 -2.2049267292022705
v -1.0522541999816895 7.021886825561523 2.204911708831787
v -1.0522534847259521 0.517733097076416 -2.204918146133423
v -1.0522539615631104 8.534232139587402 -0.000008111237548291683
v -5.462093830108643 7.021886825561523 2.204911231994629
v -1.0522539615631104 0.5177379250526428 2.2049195766448975
v -1.0522541999816895 7.021886825561523 2.204911708831787
v -5.462092876434326 8.534232139587402 -0.00000866043319547316
v -5.462092876434326 8.534232139587402 -2.204927682876587
v -5.46209192276001 0.517733097076416 -2.204918622970581
v -1.0522537231445312 8.534232139587402 -2.2049272060394287
v -5.46209192276001 0.517733097076416 -2.204918622970581
v -5.462092876434326 8.534232139587402 -2.204927682876587
v -1.0522539615631104 0.5177379250526428 2.2049195766448975
v -5.46209192276001 0.517733097076416 -2.204918622970581
v -1.0522534847259521 0.517733097076416 -2.204918146133423
v -5.462094306945801 16.550716400146484 2.204918622970581
v -1.0522539615631104 16.55072021484375 -2.204918622970581
v -5.462092876434326 16.55072021484375 -2.2049190998077393
v -1.0522539615631104 16.55072021484375 -2.204918622970581
v -5.462092876434326 16.55072021484375 -2.2049190998077393
v -5.462092876434326 16.55072021484375 -2.2049190998077393
v -5.462094306945801 16.550716400146484 2.204918622970581
v -1.0522544384002686 10.046570777893066 2.204911470413208
v -1.052254557609558 16.550716400146484 2.2049193382263184
v -5.462093830108643 8.534228324890137 2.2049102783203125
v -1.052254319190979 8.534228324890137 2.2049107551574707
v -1.0522539615631104 16.55072021484375 -2.204918622970581
v -1.0522544384002686 10.046570777893066 2.204911470413208
v -1.052254319190979 8.534228324890137 2.2049107551574707
v -1.0522537231445312 8.534232139587402 -2.2049272060394287
v -5.462093830108643 8.534228324890137 2.2049102783203125
v -5.462093830108643 7.021886825561523 2.204911231994629
v -5.462093830108643 10.046570777893066 2.20491099357605
v -5.462094306945801 16.550716400146484 2.204918622970581
v -5.462092876434326 0.5177379250526428 2.2049190998077393
v 5.462093830108643 10.046570777893066 2.2049107551574707
v 5.462093830108643 8.534228324890137 2.2049100399017334
v 5.462092876434326 8.534232139587402 -0.000008856870408635587
v 1.0522538423538208 16.55072021484375 -2.204918384552002
v 1.0522546768188477 10.046570777893066 2.204911708831787
v 1.0522546768188477 16.550716400146484 2.2049193382263184
v 1.0522546768188477 10.046570777893066 2.204911708831787
v 5.462093830108643 8.534228324890137 2.2049100399017334
v 5.462093830108643 10.046570777893066 2.2049107551574707
v 5.462093830108643 7.021886825561523 2.20491099357605
v 5.46209192276001 0.517733097076416 -2.20491886138916
v 1.0522536039352417 8.534233093261719 -2.2049269676208496
v 1.052253246307373 0.517733097076416 -2.204918146133423
v 1.0522539615631104 8.534232139587402 -0.000007921987162262667
v 5.462092876434326 8.534232139587402 -2.204927921295166
v 1.0522538423538208 16.55072021484375 -2.204918384552002
v 5.462092876434326 16.55072021484375 -2.2049193382263184
v 1.052254319190979 7.021886825561523 2.204911947250366
v 1.0522544384002686 8.534228324890137 2.2049107551574707
v 5.46209192276001 0.517733097076416 -2.20491886138916
v 1.0522541999816895 0.5177379250526428 2.2049198150634766
v 1.052253246307373 0.517733097076416 -2.204918146133423
v 5.462092876434326 8.534232139587402 -2.204927921295166
v 1.0522544384002686 8.534228324890137 2.2049107551574707
v 1.0522538423538208 16.55072021484375 -2.204918384552002
v 5.462094306945801 16.550716400146484 2.204918622970581
v 5.462092876434326 16.55072021484375 -2.2049193382263184
v 5.46209192276001 0.517733097076416 -2.20491886138916
v 1.0522536039352417 8.534233093261719 -2.2049269676208496
v 1.052254319190979 7.021886825561523 2.204911947250366
v 1.0522541999816895 0.5177379250526428 2.2049198150634766
v 5.462093830108643 7.021886825561523 2.20491099357605
v 5.462092876434326 16.55072021484375 -2.2049193382263184
v 5.462094306945801 16.550716400146484 2.204918622970581
v 1.0522546768188477 16.550716400146484 2.2049193382263184
v 5.462094306945801 16.550716400146484 2.204918622970581
v -6.122602462768555 35.5830078125 3.522700786590576
v 6.122602462768555 31.05594253540039 3.522700786590576
v 6.122602462768555 35.5830078125 3.522700786590576
v -6.122602462768555 31.05594253540039 3.522700786590576
v 6.122602462768555 26.52886962890625 3.5227015018463135
v -6.122602462768555 26.52886962890625 3.522700786590576
v 6.122602462768555 35.5830078125 3.522700786590576
v 6.122602462768555 31.05594253540039 -3.522700786590576
v 6.122602462768555 35.5830078125 -3.522700786590576
v 6.122602462768555 31.05594253540039 3.522700786590576
v 6.122602462768555 26.52886962890625 -3.522700786590576
v 6.122602462768555 26.52886962890625 3.5227015018463135
v 6.122602462768555 35.5830078125 -3.522700786590576
v -6.122602462768555 31.05594253540039 -3.522700786590576
v -6.122602462768555 35.5830078125 -3.522700786590576
v 6.122602462768555 31.05594253540039 -3.522700786590576
v -6.122602462768555 26.52886962890625 -3.522700786590576
v 6.122602462768555 26.52886962890625 -3.522700786590576
v -6.122602462768555 35.5830078125 -3.522700786590576
v -6.122602462768555 31.05594253540039 3.522700786590576
v -6.122602462768555 35.5830078125 3.522700786590576
v -6.122602462768555 31.05594253540039 -3.522700786590576
v -6.122602462768555 26.52886962890625 3.522700786590576
v -6.122602462768555 26.52886962890625 -3.522700786590576
v -5.478268146514893 46.7987060546875 6.719485282897949
v -4.441249370574951 50 6.540154933929443
v -6.3360066413879395 47.460113525390625 6.682435035705566
v 4.3526201248168945 50 6.540154933929443
v 5.389639377593994 46.7987060546875 6.719485282897949
v 6.247377872467041 47.460113525390625 6.682435035705566
v -5.170785427093506 45.120445251464844 6.766803741455078
v 5.11345100402832 49.09383010864258 6.5162353515625
v -5.224725246429443 49.09383010864258 6.5162353515625
v -5.306497097015381 37.659236907958984 8.120211601257324
v 5.054261207580566 41.2423095703125 7.235233306884766
v -5.283915042877197 41.2423095703125 7.235233306884766
v -6.485701560974121 36.88126754760742 -6.485701560974121
v 6.485701560974121 36.88126754760742 -6.485701560974121
v 6.485701560974121 36.88126754760742 6.485701560974121
v -6.485701560974121 36.88126754760742 6.485701560974121
v 6.485701560974121 36.88126754760742 -6.485701560974121
v -6.485701560974121 49.85267639160156 -6.485701560974121
v -6.122602462768555 17.474740982055664 -3.522700786590576
v 6.122602462768555 17.474740982055664 -3.522700786590576
v 6.122602462768555 17.474740982055664 3.522700786590576
v -6.122602462768555 17.474740982055664 3.522700786590576
v 6.122602462768555 17.474740982055664 -3.522700786590576
v -6.122602462768555 35.5830078125 -3.522700786590576
v 7.282608985900879 33.38355255126953 -2.2049288749694824
v 11.692448616027832 26.879405975341797 -2.2049527168273926
v 11.6924467086792 17.350553512573242 -2.2049243450164795
v 7.282608985900879 33.38355255126953 -2.2049288749694824
v 7.282604694366455 17.350570678710938 2.204909563064575
v 7.282607078552246 17.350553512573242 -2.2049264907836914
v 11.6924467086792 17.350553512573242 -2.2049243450164795
v -7.282607078552246 17.350553512573242 -2.2049262523651123
v -11.6924467086792 17.350553512573242 -2.2049245834350586
v -7.282604694366455 17.350570678710938 2.2049098014831543
v -11.6924467086792 17.350553512573242 -2.2049245834350586
v -7.282608985900879 33.38355255126953 -2.2049288749694824
v -11.6924467086792 17.350553512573242 -2.2049245834350586
v -1.0522539615631104 0.5177379250526428 2.2049195766448975
v -5.462092876434326 0.5177379250526428 2.2049190998077393
v -1.0522534847259521 0.517733097076416 -2.204918146133423
v -5.462092876434326 0.5177379250526428 2.2049190998077393
v -1.052254557609558 16.550716400146484 2.2049193382263184
v -5.462093830108643 10.046570777893066 2.20491099357605
v -1.052254557609558 16.550716400146484 2.2049193382263184
v 5.462092876434326 0.5177379250526428 2.20491886138916
v 5.462092876434326 0.5177379250526428 2.20491886138916
v 1.0522546768188477 16.550716400146484 2.2049193382263184
v 1.052253246307373 0.517733097076416 -2.204918146133423
v 1.0522541999816895 0.5177379250526428 2.2049198150634766
v 5.462092876434326 0.5177379250526428 2.20491886138916
v -3.526524782180786 49.375919342041016 6.5751142501831055
v 3.4378960132598877 49.375919342041016 6.5751142501831055
v 5.1673903465271 45.120445251464844 6.766803741455078
v 5.026100158691406 37.321502685546875 8.155516624450684
vt 0.6834620237350464 0.8282723426818848
vt 0.5192724466323853 0.9896237254142761
vt 0.6834620237350464 0.9896237254142761
vt 0.34354686737060547 0.33628344535827637
vt 0.5077364444732666 0.4976653456687927
vt 0.5077364444732666 0.33628344535827637
vt 0.1745353490114212 0.6208990812301636
vt 0.01037629321217537 0.4595171809196472
vt 0.01037629321217537 0.6208990812301636
vt 0.1745048314332962 0.2774132490158081
vt 0.01037629321217537 0.43879514932632446
vt 0.1745048314332962 0.43879514932632446
vt 0.5192724466323853 0.6461378931999207
vt 0.6834620237350464 0.807519793510437
vt 0.6834620237350464 0.6461378931999207
vt 0.6926481127738953 0.4976653456687927
vt 0.5284585356712341 0.33628344535827637
vt 0.5284585356712341 0.4976653456687927
vt 0.19528794288635254 0.5645924210548401
vt 0.2844325006008148 0.6208990812301636
vt 0.2844325006008148 0.5645924210548401
vt 0.4985503852367401 0.8206732273101807
vt 0.34354686737060547 0.7643665671348572
vt 0.34354686737060547 0.8206732273101807
vt 0.5755791068077087 0.5184179544448853
vt 0.5192724466323853 0.6075624823570251
vt 0.5755791068077087 0.6075624823570251
vt 0.34354686737060547 0.6873073577880859
vt 0.4985503852367401 0.7436139583587646
vt 0.4985503852367401 0.6873073577880859
vt 0.2844325006008148 0.3748893737792969
vt 0.19528794288635254 0.2225409746170044
vt 0.19528794288635254 0.3748893737792969
vt 0.49589526653289795 0.22638630867004395
vt 0.34354686737060547 0.3155614137649536
vt 0.49589526653289795 0.3155614137649536
vt 0.6049989461898804 0.1580858826637268
vt 0.6329233646392822 0.13928645849227905
vt 0.6049989461898804 0.13928645849227905
vt 0.5842768549919128 0.03955197334289551
vt 0.5284585356712341 0.12045657634735107
vt 0.556382954120636 0.13928645849227905
vt 0.8211004734039307 0.268837571144104
vt 0.765282154083252 0.287636935710907
vt 0.8211004734039307 0.287636935710907
vt 0.6049989461898804 0.12045657634735107
vt 0.6608172655105591 0.03955197334289551
vt 0.6049989461898804 0.03955197334289551
vt 0.5842768549919128 0.13928645849227905
vt 0.5842768549919128 0.2390209436416626
vt 0.9741813540458679 0.3873714208602905
vt 0.9183934926986694 0.287667453289032
vt 0.9183934926986694 0.3873714208602905
vt 0.765282154083252 0.30646687746047974
vt 0.8211004734039307 0.30646687746047974
vt 0.8365428447723389 0.6938382983207703
vt 0.7807245254516602 0.6389965415000916
vt 0.7807245254516602 0.6938382983207703
vt 0.6608172655105591 0.13928645849227905
vt 0.5284585356712341 0.13928645849227905
vt 0.4200872778892517 0.1507919430732727
vt 0.4759056270122528 0.20566421747207642
vt 0.4759056270122528 0.1507919430732727
vt 0.9741813540458679 0.287667453289032
vt 0.9183934926986694 0.18796348571777344
vt 0.5284585356712341 0.1580858826637268
vt 0.8211004734039307 0.3873714208602905
vt 0.6608172655105591 0.2390209436416626
vt 0.765282154083252 0.18790245056152344
vt 0.8211004734039307 0.18790245056152344
vt 0.6049989461898804 0.2390209436416626
vt 0.7807245254516602 0.9896237254142761
vt 0.8365428447723389 0.9087191224098206
vt 0.808618426322937 0.8898892402648926
vt 0.06619464606046677 0.057222187519073486
vt 0.01037629321217537 0.13812679052352905
vt 0.06619464606046677 0.13812679052352905
vt 0.14658039808273315 0.15695667266845703
vt 0.1745048314332962 0.2566911578178406
vt 0.1745048314332962 0.15695667266845703
vt 0.9338053464889526 0.9896237254142761
vt 0.9896237254142761 0.8899197578430176
vt 0.9338053464889526 0.8899197578430176
vt 0.765282154083252 0.16718041896820068
vt 0.8211004734039307 0.11230814456939697
vt 0.765282154083252 0.11230814456939697
vt 0.19528794288635254 0.20181888341903687
vt 0.25107577443122864 0.14694660902023315
vt 0.19528794288635254 0.14694660902023315
vt 0.9896237254142761 0.7902157306671143
vt 0.9338053464889526 0.7902157306671143
vt 0.1745048314332962 0.057222187519073486
vt 0.06619464606046677 0.17575609683990479
vt 0.01037629321217537 0.2566911578178406
vt 0.06619464606046677 0.2566911578178406
vt 0.01037629321217537 0.15695667266845703
vt 0.01037629321217537 0.17575609683990479
vt 0.06619464606046677 0.15695667266845703
vt 0.7807245254516602 0.7901852130889893
vt 0.8365428447723389 0.8710898160934448
vt 0.8365428447723389 0.7901852130889893
vt 0.8365428447723389 0.8898892402648926
vt 0.7807245254516602 0.8898892402648926
vt 0.1186864823102951 0.15695667266845703
vt 0.1186864823102951 0.17575609683990479
vt 0.1186864823102951 0.13812679052352905
vt 0.1186864823102951 0.057222187519073486
vt 0.6470229029655457 0.3155614137649536
vt 0.7279275059700012 0.2597430348396301
vt 0.6281930208206177 0.287667453289032
vt 0.9183934926986694 0.5266884565353394
vt 0.9741813540458679 0.6075624823570251
vt 0.9741813540458679 0.5266884565353394
vt 0.8851893544197083 0.8898892402648926
vt 0.8572649359703064 0.8898892402648926
vt 0.8572649359703064 0.9896237254142761
vt 0.765282154083252 0.5078279972076416
vt 0.8211004734039307 0.6075624823570251
vt 0.8211004734039307 0.5078279972076416
vt 0.34354686737060547 0.1507919430732727
vt 0.39936521649360657 0.20566421747207642
vt 0.39936521649360657 0.1507919430732727
vt 0.7600024342536926 0.6938382983207703
vt 0.7041841149330139 0.6389660239219666
vt 0.7041841149330139 0.6938382983207703
vt 0.765282154083252 0.40812402963638306
vt 0.8211004734039307 0.40812402963638306
vt 0.8572649359703064 0.7901852130889893
vt 0.9183934926986694 0.40815454721450806
vt 0.9741813540458679 0.48905909061431885
vt 0.9741813540458679 0.40815454721450806
vt 0.9183934926986694 0.5078585147857666
vt 0.9741813540458679 0.5078585147857666
vt 0.5284585356712341 0.2597430348396301
vt 0.6093935966491699 0.3155614137649536
vt 0.6281930208206177 0.3155614137649536
vt 0.6281930208206177 0.2597430348396301
vt 0.9130832552909851 0.8898892402648926
vt 0.9130832552909851 0.9087191224098206
vt 0.9130832552909851 0.8710898160934448
vt 0.9130832552909851 0.7901852130889893
vt 0.9130832552909851 0.9896237254142761
vt 0.8418225646018982 0.268837571144104
vt 0.8418225646018982 0.287636935710907
vt 0.8697469830513 0.287636935710907
vt 0.8418225646018982 0.40812402963638306
vt 0.8976409435272217 0.48902857303619385
vt 0.8976409435272217 0.40812402963638306
vt 0.7373577356338501 0.1581164002418518
vt 0.6815698742866516 0.13931697607040405
vt 0.6815698742866516 0.1581164002418518
vt 0.8418225646018982 0.30646687746047974
vt 0.8976409435272217 0.3873714208602905
vt 0.8418225646018982 0.5078279972076416
vt 0.8418225646018982 0.6075624823570251
vt 0.8697469830513 0.5078279972076416
vt 0.7041841149330139 0.8898892402648926
vt 0.7600024342536926 0.7901852130889893
vt 0.7041841149330139 0.7901852130889893
vt 0.7373577356338501 0.12051761150360107
vt 0.7373577356338501 0.13931697607040405
vt 0.7600024342536926 0.7145909070968628
vt 0.7041841149330139 0.7694326639175415
vt 0.7600024342536926 0.7694326639175415
vt 0.8976409435272217 0.287636935710907
vt 0.8976409435272217 0.5078279972076416
vt 0.7807245254516602 0.7145909070968628
vt 0.8365428447723389 0.7694326639175415
vt 0.8365428447723389 0.7145909070968628
vt 0.7041841149330139 0.9896237254142761
vt 0.7600024342536926 0.8898892402648926
vt 0.8976409435272217 0.5266579389572144
vt 0.7373577356338501 0.03961300849914551
vt 0.6815698742866516 0.12051761150360107
vt 0.8976409435272217 0.18790245056152344
vt 0.6815698742866516 0.2390209436416626
vt 0.7373577356338501 0.2390209436416626
vt 0.8418225646018982 0.18790245056152344
vt 0.34354686737060547 0.5184179544448853
vt 0.4985503852367401 0.574694037437439
vt 0.4985503852367401 0.5184179544448853
vt 0.34354686737060547 0.574694037437439
vt 0.4985503852367401 0.6310006976127625
vt 0.34354686737060547 0.6310006976127625
vt 0.7445600628852844 0.5184179544448853
vt 0.6882228851318359 0.6075624823570251
vt 0.7445600628852844 0.6075624823570251
vt 0.6882228851318359 0.5184179544448853
vt 0.6319162845611572 0.6075624823570251
vt 0.6319162845611572 0.5184179544448853
vt 0.4985503852367401 0.9896237254142761
vt 0.34354686737060547 0.9333170652389526
vt 0.34354686737060547 0.9896237254142761
vt 0.4985503852367401 0.9333170652389526
vt 0.34354686737060547 0.8769798874855042
vt 0.4985503852367401 0.8769798874855042
vt 0.19528794288635254 0.3956114649772644
vt 0.2844325006008148 0.4519485831260681
vt 0.2844325006008148 0.3956114649772644
vt 0.19528794288635254 0.4519485831260681
vt 0.2844325006008148 0.5082552433013916
vt 0.19528794288635254 0.5082552433013916
vt 0.713370144367218 0.41837823390960693
vt 0.7419660091400146 0.4976653456687927
vt 0.7419660091400146 0.41703546047210693
vt 0.2718283534049988 0.20044559240341187
vt 0.3004242181777954 0.12393563985824585
vt 0.27240821719169617 0.12417984008789062
vt 0.32032227516174316 0.8701132535934448
vt 0.012878810986876488 0.9896237254142761
vt 0.3228248059749603 0.9873348474502563
vt 0.32270270586013794 0.6493117809295654
vt 0.012878810986876488 0.7578051090240479
vt 0.3228248059749603 0.7555162310600281
vt 0.5192724466323853 0.8282723426818848
vt 0.34354686737060547 0.4976653456687927
vt 0.1745353490114212 0.4595171809196472
vt 0.01037629321217537 0.2774132490158081
vt 0.5192724466323853 0.807519793510437
vt 0.6926481127738953 0.33628344535827637
vt 0.19528794288635254 0.6208990812301636
vt 0.4985503852367401 0.7643665671348572
vt 0.5192724466323853 0.5184179544448853
vt 0.34354686737060547 0.7436139583587646
vt 0.2844325006008148 0.2225409746170044
vt 0.34354686737060547 0.22638630867004395
vt 0.5284585356712341 0.03955197334289551
vt 0.765282154083252 0.268837571144104
vt 0.8365428447723389 0.6389965415000916
vt 0.4200872778892517 0.20566421747207642
vt 0.9741813540458679 0.18796348571777344
vt 0.5284585356712341 0.2390209436416626
vt 0.765282154083252 0.3873714208602905
vt 0.8365428447723389 0.9896237254142761
vt 0.01037629321217537 0.057222187519073486
vt 0.9896237254142761 0.9896237254142761
vt 0.8211004734039307 0.16718041896820068
vt 0.25107577443122864 0.20181888341903687
vt 0.1186864823102951 0.2566911578178406
vt 0.7279275059700012 0.3155614137649536
vt 0.9183934926986694 0.6075624823570251
vt 0.765282154083252 0.6075624823570251
vt 0.34354686737060547 0.20566421747207642
vt 0.7600024342536926 0.6389660239219666
vt 0.9183934926986694 0.48905909061431885
vt 0.5284585356712341 0.3155614137649536
vt 0.8418225646018982 0.3873714208602905
vt 0.7041841149330139 0.7145909070968628
vt 0.7807245254516602 0.7694326639175415
vt 0.7600024342536926 0.9896237254142761
vt 0.8976409435272217 0.6075624823570251
vt 0.6815698742866516 0.03961300849914551
vt 0.7139500379562378 0.4973906874656677
vt 0.3004242181777954 0.20181888341903687
vt 0.01037629321217537 0.8724021315574646
vt 0.012848292477428913 0.6416211128234863
vn -0.5773706137421862 0.5773400966445043 0.5773400966445043
vn -0.5773706137421862 -0.5773400966445043 -0.5773400966445043
vn -0.5773299235616626 -0.5773604417347472 0.5773604417347472
vn 0.5773299235616626 0.5773604417347472 0.5773604417347472
vn -0.5773299235616626 0.5773604417347472 -0.5773604417347472
vn -0.5773706137421862 0.5773400966445043 0.5773400966445043
vn 0.5773706137421862 -0.5773400966445043 0.5773400966445043
vn 0.5773706137421862 0.5773400966445043 -0.5773400966445043
vn 0.5773299235616626 0.5773604417347472 0.5773604417347472
vn -0.5773299235616626 -0.5773604417347472 0.5773604417347472
vn 0.5773299235616626 -0.5773604417347472 -0.5773604417347472
vn 0.5773706137421862 -0.5773400966445043 0.5773400966445043
vn -0.5773299235616626 0.5773604417347472 -0.5773604417347472
vn 0.5773299235616626 -0.5773604417347472 -0.5773604417347472
vn -0.5773706137421862 -0.5773400966445043 -0.5773400966445043
vn 0.5773299235616626 0.5773604417347472 0.5773604417347472
vn -0.5773299235616626 -0.5773604417347472 0.5773604417347472
vn 0.5773706137421862 -0.5773400966445043 0.5773400966445043
vn -0.7071220399874418 0.7070915220563734 0
vn -0.5773502691896257 -0.5773502691896257 -0.5773502691896257
vn -0.7071220399874418 -0.7070915220563734 0
vn 0.7071220399874418 0.7070915220563734 0
vn -0.5773604417347472 0.5773299235616626 -0.5773604417347472
vn -0.7071220399874418 0.7070915220563734 0
vn 0.7071220399874418 -0.7070915220563734 0
vn 0.5773502691896257 0.5773502691896257 -0.5773502691896257
vn 0.7071220399874418 0.7070915220563734 0
vn -0.7071220399874418 -0.7070915220563734 0
vn 0.5773604417347472 -0.5773299235616626 -0.5773604417347472
vn 0.7071220399874418 -0.7070915220563734 0
vn -0.5773604417347472 0.5773299235616626 -0.5773604417347472
vn 0.5773604417347472 -0.5773299235616626 -0.5773604417347472
vn -0.5773502691896257 -0.5773502691896257 -0.5773502691896257
vn 0.5773604417347472 0.5773299235616626 0.5773604417347472
vn -0.5773604417347472 -0.5773299235616626 0.5773604417347472
vn 0.5773502691896257 -0.5773502691896257 0.5773502691896257
vn 0.7071067811865476 0.7071067811865476 0
vn 1 0 0
vn 0.7071220399874418 0.7070915220563734 0
vn -0.5773197510165695 -0.5773502686519244 0.5773807862872793
vn -0.7071220399874418 0.7070915220563734 0
vn -1 0 0
vn -0.7071220399874418 0.7070915220563734 0
vn 0.7071220399874418 0.7070915220563734 0
vn -0.7071220399874418 0.7070915220563734 0
vn 0.7071220399874418 0.7070915220563734 0
vn 0.5773197510165695 -0.5773502686519244 -0.5773807862872793
vn 0.5773502691896257 0.5773502691896257 -0.5773502691896257
vn -0.7071067811865476 -0.7071067811865476 0
vn -0.5773299235616626 -0.5773604417347472 -0.5773604417347472
vn -0.5773197510165695 -0.5773502686519244 0.5773807862872793
vn 0.7071067811865476 -0.7071067811865476 0
vn 0.5773299235616626 -0.5773604417347472 0.5773604417347472
vn 0.7071220399874418 0.7070915220563734 0
vn -0.7071067811865476 0.7071067811865476 0
vn -0.5773400966445043 0.5773400966445043 -0.5773706137421862
vn 0.5773197510165695 -0.5773502686519244 -0.5773807862872793
vn -0.5773299235616626 -0.5773604417347472 -0.5773604417347472
vn 0.7071067811865476 -0.7071067811865476 0
vn -0.7071220399874418 0.7070915220563734 0
vn 0.5773400966445043 0.5773400966445043 0.5773706137421862
vn -0.5773197510165695 -0.5773502686519244 0.5773807862872793
vn 0.5773299235616626 -0.5773604417347472 0.5773604417347472
vn -0.7071067811865476 -0.7071067811865476 0
vn 0.5773197510165695 -0.5773502686519244 -0.5773807862872793
vn -0.7071067811865476 0.7071067811865476 0
vn -0.5773400966445043 0.5773400966445043 -0.5773706137421862
vn 0.5773299235616626 -0.5773604417347472 0.5773604417347472
vn 0.5773400966445043 0.5773400966445043 0.5773706137421862
vn -0.5773502691896257 0.5773502691896257 0.5773502691896257
vn 0.5773400966445043 0.5773400966445043 0.5773706137421862
vn 0.5773299235616626 -0.5773604417347472 -0.5773604417347472
vn 0.7071067811865476 0.7071067811865476 0
vn 1 0 0
vn 0.5773400966445043 0.5773400966445043 -0.5773706137421862
vn -0.7071220399874418 0.7070915220563734 0
vn 0.7071067811865476 0.7071067811865476 0
vn -1 0 0
vn -0.5773197510165695 -0.5773502686519244 -0.5773807862872793
vn -0.7071067811865476 -0.7071067811865476 0
vn -0.5773197510165695 -0.5773502686519244 -0.5773807862872793
vn 0.7071067811865476 -0.7071067811865476 0
vn -0.7071067811865476 -0.7071067811865476 0
vn -0.5773197510165695 -0.5773502686519244 -0.5773807862872793
vn 0.5773400966445043 0.5773400966445043 -0.5773706137421862
vn 0.5773299235616626 -0.5773604417347472 -0.5773604417347472
vn 0.5773197510165695 -0.5773502686519244 0.5773807862872793
vn -0.5773400966445043 0.5773400966445043 0.5773706137421862
vn -0.5773299235616626 -0.5773604417347472 0.5773604417347472
vn 0.5773197510165695 -0.5773502686519244 0.5773807862872793
vn -0.5773299235616626 -0.5773604417347472 0.5773604417347472
vn -0.5773299235616626 -0.5773604417347472 0.5773604417347472
vn 0.7071220399874418 0.7070915220563734 0
vn -0.5773400966445043 0.5773400966445043 0.5773706137421862
vn 0.5773502691896257 0.5773502691896257 0.5773502691896257
vn -0.7071220399874418 0.7070915220563734 0
vn -0.7071067811865476 0.7071067811865476 0
vn 0.7071220399874418 0.7070915220563734 0
vn 0.5773197510165695 -0.5773502686519244 0.5773807862872793
vn 0.7071220399874418 0.7070915220563734 0
vn 0.5773502691896257 0.5773502691896257 0.5773502691896257
vn 0.7071220399874418 0.7070915220563734 0
vn 0.7071067811865476 -0.7071067811865476 0
vn -0.7071220399874418 0.7070915220563734 0
vn -0.7071220399874418 0.7070915220563734 0
vn -0.7071067811865476 0.7071067811865476 0
vn -0.5773400966445043 0.5773400966445043 0.5773706137421862
vn 0.7071220399874418 -0.7070915220563734 0
vn 0.5773299235616626 0.5773604417347472 -0.5773604417347472
vn 1 0 0
vn -0.7071067811865476 -0.7071067811865476 0
vn 0.5773400966445043 -0.5773400966445043 -0.5773706137421862
vn 0.7071220399874418 -0.7070915220563734 0
vn -1 0 0
vn -0.7071067811865476 0.7071067811865476 0
vn -0.5773197510165695 0.5773502686519244 -0.5773807862872793
vn 0.7071067811865476 0.7071067811865476 0
vn -0.5773197510165695 0.5773502686519244 -0.5773807862872793
vn -0.7071067811865476 0.7071067811865476 0
vn 0.5773400966445043 -0.5773400966445043 -0.5773706137421862
vn -0.5773197510165695 0.5773502686519244 -0.5773807862872793
vn 0.5773299235616626 0.5773604417347472 -0.5773604417347472
vn -0.5773400966445043 -0.5773400966445043 0.5773706137421862
vn 0.5773197510165695 0.5773502686519244 0.5773807862872793
vn -0.5773299235616626 0.5773604417347472 0.5773604417347472
vn 0.5773197510165695 0.5773502686519244 0.5773807862872793
vn -0.5773299235616626 0.5773604417347472 0.5773604417347472
vn -0.5773299235616626 0.5773604417347472 0.5773604417347472
vn -0.5773400966445043 -0.5773400966445043 0.5773706137421862
vn 0.7071220399874418 -0.7070915220563734 0
vn 0.5773502691896257 -0.5773502691896257 0.5773502691896257
vn -0.7071220399874418 -0.7070915220563734 0
vn 0.7071067811865476 -0.7071067811865476 0
vn 0.5773197510165695 0.5773502686519244 0.5773807862872793
vn 0.7071220399874418 -0.7070915220563734 0
vn 0.7071067811865476 -0.7071067811865476 0
vn 0.7071067811865476 0.7071067811865476 0
vn -0.7071220399874418 -0.7070915220563734 0
vn -0.7071067811865476 -0.7071067811865476 0
vn -0.7071067811865476 -0.7071067811865476 0
vn -0.5773400966445043 -0.5773400966445043 0.5773706137421862
vn -0.5773502691896257 -0.5773502691896257 -0.5773502691896257
vn 0.7071067811865476 -0.7071067811865476 0
vn 0.7071220399874418 -0.7070915220563734 0
vn 1 0 0
vn -0.5773197510165695 0.5773502686519244 0.5773807862872793
vn -0.7071220399874418 -0.7070915220563734 0
vn -0.5773502691896257 -0.5773502691896257 0.5773502691896257
vn -0.7071220399874418 -0.7070915220563734 0
vn 0.7071220399874418 -0.7070915220563734 0
vn 0.7071067811865476 -0.7071067811865476 0
vn 0.7071067811865476 -0.7071067811865476 0
vn 0.5773197510165695 0.5773502686519244 -0.5773807862872793
vn -0.7071067811865476 0.7071067811865476 0
vn -0.5773299235616626 0.5773604417347472 -0.5773604417347472
vn -1 0 0
vn 0.7071067811865476 0.7071067811865476 0
vn -0.5773197510165695 0.5773502686519244 0.5773807862872793
vn 0.5773299235616626 0.5773604417347472 0.5773604417347472
vn -0.7071220399874418 -0.7070915220563734 0
vn -0.7071067811865476 -0.7071067811865476 0
vn 0.5773197510165695 0.5773502686519244 -0.5773807862872793
vn -0.5773400966445043 -0.5773400966445043 -0.5773706137421862
vn -0.5773299235616626 0.5773604417347472 -0.5773604417347472
vn 0.7071067811865476 0.7071067811865476 0
vn -0.7071067811865476 -0.7071067811865476 0
vn -0.5773197510165695 0.5773502686519244 0.5773807862872793
vn 0.5773400966445043 -0.5773400966445043 0.5773706137421862
vn 0.5773299235616626 0.5773604417347472 0.5773604417347472
vn 0.5773197510165695 0.5773502686519244 -0.5773807862872793
vn -0.7071067811865476 0.7071067811865476 0
vn -0.7071220399874418 -0.7070915220563734 0
vn -0.5773400966445043 -0.5773400966445043 -0.5773706137421862
vn 0.7071067811865476 -0.7071067811865476 0
vn 0.5773299235616626 0.5773604417347472 0.5773604417347472
vn 0.5773400966445043 -0.5773400966445043 0.5773706137421862
vn -0.5773502691896257 -0.5773502691896257 0.5773502691896257
vn 0.5773400966445043 -0.5773400966445043 0.5773706137421862
vn -0.5773604417347472 -0.5773299235616626 0.5773604417347472
vn 0.7071220399874418 -0.7070915220563734 0
vn 0.5773502691896257 -0.5773502691896257 0.5773502691896257
vn -0.7071220399874418 -0.7070915220563734 0
vn 0.7071220399874418 -0.7070915220563734 0
vn -0.7071220399874418 -0.7070915220563734 0
vn 0.5773502691896257 -0.5773502691896257 0.5773502691896257
vn 0.7071220399874418 0.7070915220563734 0
vn 0.5773604417347472 0.5773299235616626 0.5773604417347472
vn 0.7071220399874418 -0.7070915220563734 0
vn 0.7071220399874418 0.7070915220563734 0
vn 0.7071220399874418 -0.7070915220563734 0
vn 0.5773604417347472 0.5773299235616626 0.5773604417347472
vn -0.7071220399874418 0.7070915220563734 0
vn -0.5773502691896257 0.5773502691896257 0.5773502691896257
vn 0.7071220399874418 0.7070915220563734 0
vn -0.7071220399874418 0.7070915220563734 0
vn 0.7071220399874418 0.7070915220563734 0
vn -0.5773502691896257 0.5773502691896257 0.5773502691896257
vn -0.7071220399874418 -0.7070915220563734 0
vn -0.5773604417347472 -0.5773299235616626 0.5773604417347472
vn -0.7071220399874418 0.7070915220563734 0
vn -0.7071220399874418 -0.7070915220563734 0
vn -0.7071220399874418 0.7070915220563734 0
vn 0 -0.9984341378382117 0.05593989988610337
vn 0 -0.9984341378382117 0.05593989988610337
vn 0 -0.9984341378382117 0.05593989988610337
vn 0 -0.9984341378382117 0.05593989988610337
vn 0 -0.9984341378382117 0.05593989988610337
vn 0 -0.9984341378382117 0.05593989988610337
vn 0 -0.9957943093823279 0.09161710212494492
vn 0 -0.998017988991473 0.06292927497926613
vn 0 -0.998017988991473 0.06292927497926613
vn 0.000976604212000259 -0.9714770175352433 0.23713171581431647
vn 0.0015869538479160788 -0.9845522662591937 0.17508374162488682
vn 0 -0.9835105186557593 0.1808509322438767
vn -0.5773299235616626 0.5773604417347472 -0.5773604417347472
vn 0.5773706137421862 0.5773400966445043 -0.5773400966445043
vn 0.5773299235616626 -0.5773604417347472 -0.5773604417347472
vn -0.5773706137421862 -0.5773400966445043 -0.5773400966445043
vn 0.5773706137421862 0.5773400966445043 -0.5773400966445043
vn -0.5773706137421862 0.5773400966445043 0.5773400966445043
vn -0.5773604417347472 0.5773299235616626 -0.5773604417347472
vn 0.5773502691896257 0.5773502691896257 -0.5773502691896257
vn 0.5773604417347472 -0.5773299235616626 -0.5773604417347472
vn -0.5773502691896257 -0.5773502691896257 -0.5773502691896257
vn 0.5773502691896257 0.5773502691896257 -0.5773502691896257
vn -0.5773502691896257 0.5773502691896257 0.5773502691896257
vn -0.5773502691896257 0.5773502691896257 0.5773502691896257
vn 0.7071067811865476 0.7071067811865476 0
vn 0.5773502691896257 0.5773502691896257 -0.5773502691896257
vn -0.5773502691896257 0.5773502691896257 0.5773502691896257
vn -0.5773299235616626 -0.5773604417347472 -0.5773604417347472
vn -0.5773400966445043 0.5773400966445043 -0.5773706137421862
vn 0.5773502691896257 0.5773502691896257 -0.5773502691896257
vn 0.5773400966445043 0.5773400966445043 -0.5773706137421862
vn -0.5773502691896257 0.5773502691896257 -0.5773502691896257
vn 0.5773299235616626 -0.5773604417347472 -0.5773604417347472
vn -0.5773502691896257 0.5773502691896257 -0.5773502691896257
vn 0.5773502691896257 0.5773502691896257 0.5773502691896257
vn -0.5773502691896257 0.5773502691896257 -0.5773502691896257
vn 0.5773400966445043 -0.5773400966445043 -0.5773706137421862
vn -0.5773502691896257 -0.5773502691896257 -0.5773502691896257
vn 0.5773299235616626 0.5773604417347472 -0.5773604417347472
vn -0.5773502691896257 -0.5773502691896257 -0.5773502691896257
vn 0.5773502691896257 -0.5773502691896257 0.5773502691896257
vn -0.7071067811865476 -0.7071067811865476 0
vn 0.5773502691896257 -0.5773502691896257 0.5773502691896257
vn 0.5773502691896257 -0.5773502691896257 -0.5773502691896257
vn 0.5773502691896257 -0.5773502691896257 -0.5773502691896257
vn -0.5773502691896257 -0.5773502691896257 0.5773502691896257
vn -0.5773299235616626 0.5773604417347472 -0.5773604417347472
vn -0.5773400966445043 -0.5773400966445043 -0.5773706137421862
vn 0.5773502691896257 -0.5773502691896257 -0.5773502691896257
vn 0 -0.9984341378382117 0.05593989988610337
vn 0 -0.9984341378382117 0.05593989988610337
vn 0 -0.9958223612116965 0.09131169098621299
vn 0.004150503136568984 -0.9735371066918113 0.2284913022805252
f 1/1/1 2/2/2 3/3/3
f 1/1/1 2/2/2 3/3/3
f 1/1/1 2/2/2 3/3/3
f 4/4/4 5/5/5 6/6/6
f 4/4/4 5/5/5 6/6/6
f 4/4/4 5/5/5 6/6/6
f 7/7/7 8/8/8 9/9/9
f 7/7/7 8/8/8 9/9/9
f 7/7/7 8/8/8 9/9/9
f 10/10/10 11/11/11 12/12/12
f 10/10/10 11/11/11 12/12/12
f 10/10/10 11/11/11 12/12/12
f 13/13/13 14/14/14 15/15/15
f 13/13/13 14/14/14 15/15/15
f 13/13/13 14/14/14 15/15/15
f 16/16/16 17/17/17 18/18/18
f 16/16/16 17/17/17 18/18/18
f 16/16/16 17/17/17 18/18/18
f 19/19/19 20/20/20 21/21/21
f 19/19/19 20/20/20 21/21/21
f 19/19/19 20/20/20 21/21/21
f 22/22/22 23/23/23 24/24/24
f 22/22/22 23/23/23 24/24/24
f 22/22/22 23/23/23 24/24/24
f 25/25/25 26/26/26 27/27/27
f 25/25/25 26/26/26 27/27/27
f 25/25/25 26/26/26 27/27/27
f 28/28/28 29/29/29 30/30/30
f 28/28/28 29/29/29 30/30/30
f 28/28/28 29/29/29 30/30/30
f 31/31/31 32/32/32 33/33/33
f 31/31/31 32/32/32 33/33/33
f 31/31/31 32/32/32 33/33/33
f 34/34/34 35/35/35 36/36/36
f 34/34/34 35/35/35 36/36/36
f 34/34/34 35/35/35 36/36/36
f 37/37/37 38/38/38 39/39/39
f 37/37/37 38/38/38 39/39/39
f 37/37/37 38/38/38 39/39/39
f 40/40/40 41/41/41 42/42/42
f 40/40/40 41/41/41 42/42/42
f 40/40/40 41/41/41 42/42/42
f 43/43/43 44/44/44 45/45/45
f 43/43/43 44/44/44 45/45/45
f 43/43/43 44/44/44 45/45/45
f 46/46/46 47/47/47 48/48/48
f 46/46/46 47/47/47 48/48/48
f 46/46/46 47/47/47 48/48/48
f 49/49/49 42/42/42 50/50/50
f 49/49/49 42/42/42 50/50/50
f 49/49/49 42/42/42 50/50/50
f 40/40/40 42/42/42 49/49/49
f 40/40/40 42/42/42 49/49/49
f 40/40/40 42/42/42 49/49/49
f 39/39/39 38/38/38 46/46/46
f 39/39/39 38/38/38 46/46/46
f 39/39/39 38/38/38 46/46/46
f 51/51/51 52/52/52 53/53/53
f 51/51/51 52/52/52 53/53/53
f 51/51/51 52/52/52 53/53/53
f 45/45/45 54/54/54 55/55/55
f 45/45/45 54/54/54 55/55/55
f 45/45/45 54/54/54 55/55/55
f 56/56/56 57/57/57 58/58/58
f 56/56/56 57/57/57 58/58/58
f 56/56/56 57/57/57 58/58/58
f 38/38/38 59/59/59 47/47/47
f 38/38/38 59/59/59 47/47/47
f 38/38/38 59/59/59 47/47/47
f 42/42/42 41/41/41 60/60/60
f 42/42/42 41/41/41 60/60/60
f 42/42/42 41/41/41 60/60/60
f 61/61/61 62/62/62 63/63/63
f 61/61/61 62/62/62 63/63/63
f 61/61/61 62/62/62 63/63/63
f 64/64/64 65/65/65 52/52/52
f 64/64/64 65/65/65 52/52/52
f 64/64/64 65/65/65 52/52/52
f 42/42/42 60/60/60 66/66/66
f 42/42/42 60/60/60 66/66/66
f 42/42/42 60/60/60 66/66/66
f 66/66/66 50/50/50 42/42/42
f 66/66/66 50/50/50 42/42/42
f 66/66/66 50/50/50 42/42/42
f 54/54/54 67/67/67 55/55/55
f 54/54/54 67/67/67 55/55/55
f 54/54/54 67/67/67 55/55/55
f 68/68/68 59/59/59 38/38/38
f 68/68/68 59/59/59 38/38/38
f 68/68/68 59/59/59 38/38/38
f 69/69/69 43/43/43 70/70/70
f 69/69/69 43/43/43 70/70/70
f 69/69/69 43/43/43 70/70/70
f 68/68/68 37/37/37 71/71/71
f 68/68/68 37/37/37 71/71/71
f 68/68/68 37/37/37 71/71/71
f 72/72/72 73/73/73 74/74/74
f 72/72/72 73/73/73 74/74/74
f 72/72/72 73/73/73 74/74/74
f 75/75/75 76/76/76 77/77/77
f 75/75/75 76/76/76 77/77/77
f 75/75/75 76/76/76 77/77/77
f 78/78/78 79/79/79 80/80/80
f 78/78/78 79/79/79 80/80/80
f 78/78/78 79/79/79 80/80/80
f 81/81/81 82/82/82 83/83/83
f 81/81/81 82/82/82 83/83/83
f 81/81/81 82/82/82 83/83/83
f 84/84/84 85/85/85 86/86/86
f 84/84/84 85/85/85 86/86/86
f 84/84/84 85/85/85 86/86/86
f 87/87/87 88/88/88 89/89/89
f 87/87/87 88/88/88 89/89/89
f 87/87/87 88/88/88 89/89/89
f 83/83/83 90/90/90 91/91/91
f 83/83/83 90/90/90 91/91/91
f 83/83/83 90/90/90 91/91/91
f 92/92/92 78/78/78 80/80/80
f 92/92/92 78/78/78 80/80/80
f 92/92/92 78/78/78 80/80/80
f 93/93/93 94/94/94 95/95/95
f 93/93/93 94/94/94 95/95/95
f 93/93/93 94/94/94 95/95/95
f 93/93/93 96/96/96 97/97/97
f 93/93/93 96/96/96 97/97/97
f 93/93/93 96/96/96 97/97/97
f 98/98/98 76/76/76 96/96/96
f 98/98/98 76/76/76 96/96/96
f 98/98/98 76/76/76 96/96/96
f 99/99/99 100/100/100 101/101/101
f 99/99/99 100/100/100 101/101/101
f 99/99/99 100/100/100 101/101/101
f 74/74/74 102/102/102 100/100/100
f 74/74/74 102/102/102 100/100/100
f 74/74/74 102/102/102 100/100/100
f 74/74/74 73/73/73 102/102/102
f 74/74/74 73/73/73 102/102/102
f 74/74/74 73/73/73 102/102/102
f 99/99/99 103/103/103 74/74/74
f 99/99/99 103/103/103 74/74/74
f 99/99/99 103/103/103 74/74/74
f 104/104/104 105/105/105 78/78/78
f 104/104/104 105/105/105 78/78/78
f 104/104/104 105/105/105 78/78/78
f 106/106/106 104/104/104 78/78/78
f 106/106/106 104/104/104 78/78/78
f 106/106/106 104/104/104 78/78/78
f 106/106/106 92/92/92 107/107/107
f 106/106/106 92/92/92 107/107/107
f 106/106/106 92/92/92 107/107/107
f 105/105/105 79/79/79 78/78/78
f 105/105/105 79/79/79 78/78/78
f 105/105/105 79/79/79 78/78/78
f 103/103/103 72/72/72 74/74/74
f 103/103/103 72/72/72 74/74/74
f 103/103/103 72/72/72 74/74/74
f 108/108/108 109/109/109 110/110/110
f 108/108/108 109/109/109 110/110/110
f 108/108/108 109/109/109 110/110/110
f 111/111/111 112/112/112 113/113/113
f 111/111/111 112/112/112 113/113/113
f 111/111/111 112/112/112 113/113/113
f 114/114/114 115/115/115 116/116/116
f 114/114/114 115/115/115 116/116/116
f 114/114/114 115/115/115 116/116/116
f 117/117/117 118/118/118 119/119/119
f 117/117/117 118/118/118 119/119/119
f 117/117/117 118/118/118 119/119/119
f 120/120/120 121/121/121 122/122/122
f 120/120/120 121/121/121 122/122/122
f 120/120/120 121/121/121 122/122/122
f 123/123/123 124/124/124 125/125/125
f 123/123/123 124/124/124 125/125/125
f 123/123/123 124/124/124 125/125/125
f 126/126/126 119/119/119 127/127/127
f 126/126/126 119/119/119 127/127/127
f 126/126/126 119/119/119 127/127/127
f 128/128/128 115/115/115 114/114/114
f 128/128/128 115/115/115 114/114/114
f 128/128/128 115/115/115 114/114/114
f 129/129/129 130/130/130 131/131/131
f 129/129/129 130/130/130 131/131/131
f 129/129/129 130/130/130 131/131/131
f 130/130/130 132/132/132 133/133/133
f 130/130/130 132/132/132 133/133/133
f 130/130/130 132/132/132 133/133/133
f 132/132/132 113/113/113 133/133/133
f 132/132/132 113/113/113 133/133/133
f 132/132/132 113/113/113 133/133/133
f 134/134/134 135/135/135 110/110/110
f 134/134/134 135/135/135 110/110/110
f 134/134/134 135/135/135 110/110/110
f 110/110/110 135/135/135 136/136/136
f 110/110/110 135/135/135 136/136/136
f 110/110/110 135/135/135 136/136/136
f 110/110/110 136/136/136 108/108/108
f 110/110/110 136/136/136 108/108/108
f 110/110/110 136/136/136 108/108/108
f 134/134/134 110/110/110 137/137/137
f 134/134/134 110/110/110 137/137/137
f 134/134/134 110/110/110 137/137/137
f 138/138/138 114/114/114 139/139/139
f 138/138/138 114/114/114 139/139/139
f 138/138/138 114/114/114 139/139/139
f 140/140/140 114/114/114 138/138/138
f 140/140/140 114/114/114 138/138/138
f 140/140/140 114/114/114 138/138/138
f 128/128/128 140/140/140 141/141/141
f 128/128/128 140/140/140 141/141/141
f 128/128/128 140/140/140 141/141/141
f 139/139/139 116/116/116 142/142/142
f 139/139/139 116/116/116 142/142/142
f 139/139/139 116/116/116 142/142/142
f 137/137/137 110/110/110 109/109/109
f 137/137/137 110/110/110 109/109/109
f 137/137/137 110/110/110 109/109/109
f 143/143/143 144/144/144 145/145/145
f 143/143/143 144/144/144 145/145/145
f 143/143/143 144/144/144 145/145/145
f 146/146/146 147/147/147 148/148/148
f 146/146/146 147/147/147 148/148/148
f 146/146/146 147/147/147 148/148/148
f 149/149/149 150/150/150 151/151/151
f 149/149/149 150/150/150 151/151/151
f 149/149/149 150/150/150 151/151/151
f 152/152/152 153/153/153 145/145/145
f 152/152/152 153/153/153 145/145/145
f 152/152/152 153/153/153 145/145/145
f 154/154/154 155/155/155 156/156/156
f 154/154/154 155/155/155 156/156/156
f 154/154/154 155/155/155 156/156/156
f 146/146/146 154/154/154 156/156/156
f 146/146/146 154/154/154 156/156/156
f 146/146/146 154/154/154 156/156/156
f 144/144/144 152/152/152 145/145/145
f 144/144/144 152/152/152 145/145/145
f 144/144/144 152/152/152 145/145/145
f 157/157/157 158/158/158 159/159/159
f 157/157/157 158/158/158 159/159/159
f 157/157/157 158/158/158 159/159/159
f 160/160/160 150/150/150 161/161/161
f 160/160/160 150/150/150 161/161/161
f 160/160/160 150/150/150 161/161/161
f 162/162/162 163/163/163 164/164/164
f 162/162/162 163/163/163 164/164/164
f 162/162/162 163/163/163 164/164/164
f 145/145/145 153/153/153 165/165/165
f 145/145/145 153/153/153 165/165/165
f 145/145/145 153/153/153 165/165/165
f 156/156/156 166/166/166 147/147/147
f 156/156/156 166/166/166 147/147/147
f 156/156/156 166/166/166 147/147/147
f 167/167/167 168/168/168 169/169/169
f 167/167/167 168/168/168 169/169/169
f 167/167/167 168/168/168 169/169/169
f 170/170/170 171/171/171 157/157/157
f 170/170/170 171/171/171 157/157/157
f 170/170/170 171/171/171 157/157/157
f 156/156/156 172/172/172 166/166/166
f 156/156/156 172/172/172 166/166/166
f 156/156/156 172/172/172 166/166/166
f 155/155/155 172/172/172 156/156/156
f 155/155/155 172/172/172 156/156/156
f 155/155/155 172/172/172 156/156/156
f 173/173/173 174/174/174 160/160/160
f 173/173/173 174/174/174 160/160/160
f 173/173/173 174/174/174 160/160/160
f 175/175/175 145/145/145 165/165/165
f 175/175/175 145/145/145 165/165/165
f 175/175/175 145/145/145 165/165/165
f 149/149/149 176/176/176 177/177/177
f 149/149/149 176/176/176 177/177/177
f 149/149/149 176/176/176 177/177/177
f 143/143/143 175/175/175 178/178/178
f 143/143/143 175/175/175 178/178/178
f 143/143/143 175/175/175 178/178/178
f 179/179/179 180/180/180 181/181/181
f 179/179/179 180/180/180 181/181/181
f 179/179/179 180/180/180 181/181/181
f 182/182/182 183/183/183 180/180/180
f 182/182/182 183/183/183 180/180/180
f 182/182/182 183/183/183 180/180/180
f 184/184/184 30/30/30 183/183/183
f 184/184/184 30/30/30 183/183/183
f 184/184/184 30/30/30 183/183/183
f 185/185/185 186/186/186 187/187/187
f 185/185/185 186/186/186 187/187/187
f 185/185/185 186/186/186 187/187/187
f 188/188/188 189/189/189 186/186/186
f 188/188/188 189/189/189 186/186/186
f 188/188/188 189/189/189 186/186/186
f 190/190/190 27/27/27 189/189/189
f 190/190/190 27/27/27 189/189/189
f 190/190/190 27/27/27 189/189/189
f 191/191/191 192/192/192 193/193/193
f 191/191/191 192/192/192 193/193/193
f 191/191/191 192/192/192 193/193/193
f 194/194/194 195/195/195 192/192/192
f 194/194/194 195/195/195 192/192/192
f 194/194/194 195/195/195 192/192/192
f 196/196/196 24/24/24 195/195/195
f 196/196/196 24/24/24 195/195/195
f 196/196/196 24/24/24 195/195/195
f 197/197/197 198/198/198 199/199/199
f 197/197/197 198/198/198 199/199/199
f 197/197/197 198/198/198 199/199/199
f 200/200/200 201/201/201 198/198/198
f 200/200/200 201/201/201 198/198/198
f 200/200/200 201/201/201 198/198/198
f 202/202/202 21/21/21 201/201/201
f 202/202/202 21/21/21 201/201/201
f 202/202/202 21/21/21 201/201/201
f 203/203/203 204/204/204 205/205/205
f 203/203/203 204/204/204 205/205/205
f 203/203/203 204/204/204 205/205/205
f 206/206/206 207/207/207 208/208/208
f 206/206/206 207/207/207 208/208/208
f 206/206/206 207/207/207 208/208/208
f 209/209/209 210/210/210 211/211/211
f 209/209/209 210/210/210 211/211/211
f 209/209/209 210/210/210 211/211/211
f 212/212/212 213/213/213 214/214/214
f 212/212/212 213/213/213 214/214/214
f 212/212/212 213/213/213 214/214/214
f 213/213/213 209/209/209 214/214/214
f 213/213/213 209/209/209 214/214/214
f 213/213/213 209/209/209 214/214/214
f 1/1/1 215/215/215 2/2/2
f 1/1/1 215/215/215 2/2/2
f 1/1/1 215/215/215 2/2/2
f 4/4/4 216/216/216 5/5/5
f 4/4/4 216/216/216 5/5/5
f 4/4/4 216/216/216 5/5/5
f 7/7/7 217/217/217 8/8/8
f 7/7/7 217/217/217 8/8/8
f 7/7/7 217/217/217 8/8/8
f 10/10/10 218/218/218 11/11/11
f 10/10/10 218/218/218 11/11/11
f 10/10/10 218/218/218 11/11/11
f 13/13/13 219/219/219 14/14/14
f 13/13/13 219/219/219 14/14/14
f 13/13/13 219/219/219 14/14/14
f 16/16/16 220/220/220 17/17/17
f 16/16/16 220/220/220 17/17/17
f 16/16/16 220/220/220 17/17/17
f 19/19/19 221/221/221 20/20/20
f 19/19/19 221/221/221 20/20/20
f 19/19/19 221/221/221 20/20/20
f 22/22/22 222/222/222 23/23/23
f 22/22/22 222/222/222 23/23/23
f 22/22/22 222/222/222 23/23/23
f 25/25/25 223/223/223 26/26/26
f 25/25/25 223/223/223 26/26/26
f 25/25/25 223/223/223 26/26/26
f 28/28/28 224/224/224 29/29/29
f 28/28/28 224/224/224 29/29/29
f 28/28/28 224/224/224 29/29/29
f 31/31/31 225/225/225 32/32/32
f 31/31/31 225/225/225 32/32/32
f 31/31/31 225/225/225 32/32/32
f 34/34/34 226/226/226 35/35/35
f 34/34/34 226/226/226 35/35/35
f 34/34/34 226/226/226 35/35/35
f 40/40/40 227/227/227 41/41/41
f 40/40/40 227/227/227 41/41/41
f 40/40/40 227/227/227 41/41/41
f 43/43/43 228/228/228 44/44/44
f 43/43/43 228/228/228 44/44/44
f 43/43/43 228/228/228 44/44/44
f 46/46/46 38/38/38 47/47/47
f 46/46/46 38/38/38 47/47/47
f 46/46/46 38/38/38 47/47/47
f 51/51/51 64/64/64 52/52/52
f 51/51/51 64/64/64 52/52/52
f 51/51/51 64/64/64 52/52/52
f 45/45/45 44/44/44 54/54/54
f 45/45/45 44/44/44 54/54/54
f 45/45/45 44/44/44 54/54/54
f 56/56/56 229/229/229 57/57/57
f 56/56/56 229/229/229 57/57/57
f 56/56/56 229/229/229 57/57/57
f 61/61/61 230/230/230 62/62/62
f 61/61/61 230/230/230 62/62/62
f 61/61/61 230/230/230 62/62/62
f 64/64/64 231/231/231 65/65/65
f 64/64/64 231/231/231 65/65/65
f 64/64/64 231/231/231 65/65/65
f 66/66/66 232/232/232 50/50/50
f 66/66/66 232/232/232 50/50/50
f 66/66/66 232/232/232 50/50/50
f 54/54/54 233/233/233 67/67/67
f 54/54/54 233/233/233 67/67/67
f 54/54/54 233/233/233 67/67/67
f 69/69/69 228/228/228 43/43/43
f 69/69/69 228/228/228 43/43/43
f 69/69/69 228/228/228 43/43/43
f 68/68/68 38/38/38 37/37/37
f 68/68/68 38/38/38 37/37/37
f 68/68/68 38/38/38 37/37/37
f 72/72/72 234/234/234 73/73/73
f 72/72/72 234/234/234 73/73/73
f 72/72/72 234/234/234 73/73/73
f 75/75/75 235/235/235 76/76/76
f 75/75/75 235/235/235 76/76/76
f 75/75/75 235/235/235 76/76/76
f 81/81/81 236/236/236 82/82/82
f 81/81/81 236/236/236 82/82/82
f 81/81/81 236/236/236 82/82/82
f 84/84/84 237/237/237 85/85/85
f 84/84/84 237/237/237 85/85/85
f 84/84/84 237/237/237 85/85/85
f 87/87/87 238/238/238 88/88/88
f 87/87/87 238/238/238 88/88/88
f 87/87/87 238/238/238 88/88/88
f 83/83/83 82/82/82 90/90/90
f 83/83/83 82/82/82 90/90/90
f 83/83/83 82/82/82 90/90/90
f 93/93/93 97/97/97 94/94/94
f 93/93/93 97/97/97 94/94/94
f 93/93/93 97/97/97 94/94/94
f 93/93/93 98/98/98 96/96/96
f 93/93/93 98/98/98 96/96/96
f 93/93/93 98/98/98 96/96/96
f 98/98/98 77/77/77 76/76/76
f 98/98/98 77/77/77 76/76/76
f 98/98/98 77/77/77 76/76/76
f 99/99/99 74/74/74 100/100/100
f 99/99/99 74/74/74 100/100/100
f 99/99/99 74/74/74 100/100/100
f 106/106/106 78/78/78 92/92/92
f 106/106/106 78/78/78 92/92/92
f 106/106/106 78/78/78 92/92/92
f 105/105/105 239/239/239 79/79/79
f 105/105/105 239/239/239 79/79/79
f 105/105/105 239/239/239 79/79/79
f 108/108/108 240/240/240 109/109/109
f 108/108/108 240/240/240 109/109/109
f 108/108/108 240/240/240 109/109/109
f 111/111/111 241/241/241 112/112/112
f 111/111/111 241/241/241 112/112/112
f 111/111/111 241/241/241 112/112/112
f 117/117/117 242/242/242 118/118/118
f 117/117/117 242/242/242 118/118/118
f 117/117/117 242/242/242 118/118/118
f 120/120/120 243/243/243 121/121/121
f 120/120/120 243/243/243 121/121/121
f 120/120/120 243/243/243 121/121/121
f 123/123/123 244/244/244 124/124/124
f 123/123/123 244/244/244 124/124/124
f 123/123/123 244/244/244 124/124/124
f 126/126/126 117/117/117 119/119/119
f 126/126/126 117/117/117 119/119/119
f 126/126/126 117/117/117 119/119/119
f 129/129/129 245/245/245 130/130/130
f 129/129/129 245/245/245 130/130/130
f 129/129/129 245/245/245 130/130/130
f 130/130/130 245/245/245 132/132/132
f 130/130/130 245/245/245 132/132/132
f 130/130/130 245/245/245 132/132/132
f 132/132/132 111/111/111 113/113/113
f 132/132/132 111/111/111 113/113/113
f 132/132/132 111/111/111 113/113/113
f 134/134/134 246/246/246 135/135/135
f 134/134/134 246/246/246 135/135/135
f 134/134/134 246/246/246 135/135/135
f 128/128/128 114/114/114 140/140/140
f 128/128/128 114/114/114 140/140/140
f 128/128/128 114/114/114 140/140/140
f 139/139/139 114/114/114 116/116/116
f 139/139/139 114/114/114 116/116/116
f 139/139/139 114/114/114 116/116/116
f 146/146/146 156/156/156 147/147/147
f 146/146/146 156/156/156 147/147/147
f 146/146/146 156/156/156 147/147/147
f 149/149/149 161/161/161 150/150/150
f 149/149/149 161/161/161 150/150/150
f 149/149/149 161/161/161 150/150/150
f 152/152/152 247/247/247 153/153/153
f 152/152/152 247/247/247 153/153/153
f 152/152/152 247/247/247 153/153/153
f 157/157/157 171/171/171 158/158/158
f 157/157/157 171/171/171 158/158/158
f 157/157/157 171/171/171 158/158/158
f 160/160/160 174/174/174 150/150/150
f 160/160/160 174/174/174 150/150/150
f 160/160/160 174/174/174 150/150/150
f 162/162/162 248/248/248 163/163/163
f 162/162/162 248/248/248 163/163/163
f 162/162/162 248/248/248 163/163/163
f 167/167/167 249/249/249 168/168/168
f 167/167/167 249/249/249 168/168/168
f 167/167/167 249/249/249 168/168/168
f 170/170/170 250/250/250 171/171/171
f 170/170/170 250/250/250 171/171/171
f 170/170/170 250/250/250 171/171/171
f 155/155/155 251/251/251 172/172/172
f 155/155/155 251/251/251 172/172/172
f 155/155/155 251/251/251 172/172/172
f 173/173/173 252/252/252 174/174/174
f 173/173/173 252/252/252 174/174/174
f 173/173/173 252/252/252 174/174/174
f 149/149/149 151/151/151 176/176/176
f 149/149/149 151/151/151 176/176/176
f 149/149/149 151/151/151 176/176/176
f 143/143/143 145/145/145 175/175/175
f 143/143/143 145/145/145 175/175/175
f 143/143/143 145/145/145 175/175/175
f 179/179/179 182/182/182 180/180/180
f 179/179/179 182/182/182 180/180/180
f 179/179/179 182/182/182 180/180/180
f 182/182/182 184/184/184 183/183/183
f 182/182/182 184/184/184 183/183/183
f 182/182/182 184/184/184 183/183/183
f 184/184/184 28/28/28 30/30/30
f 184/184/184 28/28/28 30/30/30
f 184/184/184 28/28/28 30/30/30
f 185/185/185 188/188/188 186/186/186
f 185/185/185 188/188/188 186/186/186
f 185/185/185 188/188/188 186/186/186
f 188/188/188 190/190/190 189/189/189
f 188/188/188 190/190/190 189/189/189
f 188/188/188 190/190/190 189/189/189
f 190/190/190 25/25/25 27/27/27
f 190/190/190 25/25/25 27/27/27
f 190/190/190 25/25/25 27/27/27
f 191/191/191 194/194/194 192/192/192
f 191/191/191 194/194/194 192/192/192
f 191/191/191 194/194/194 192/192/192
f 194/194/194 196/196/196 195/195/195
f 194/194/194 196/196/196 195/195/195
f 194/194/194 196/196/196 195/195/195
f 196/196/196 22/22/22 24/24/24
f 196/196/196 22/22/22 24/24/24
f 196/196/196 22/22/22 24/24/24
f 197/197/197 200/200/200 198/198/198
f 197/197/197 200/200/200 198/198/198
f 197/197/197 200/200/200 198/198/198
f 200/200/200 202/202/202 201/201/201
f 200/200/200 202/202/202 201/201/201
f 200/200/200 202/202/202 201/201/201
f 202/202/202 19/19/19 21/21/21
f 202/202/202 19/19/19 21/21/21
f 202/202/202 19/19/19 21/21/21
f 203/203/203 253/253/253 204/204/204
f 203/203/203 253/253/253 204/204/204
f 203/203/203 253/253/253 204/204/204
f 206/206/206 254/254/254 207/207/207
f 206/206/206 254/254/254 207/207/207
f 206/206/206 254/254/254 207/207/207
f 209/209/209 255/255/255 210/210/210
f 209/209/209 255/255/255 210/210/210
f 209/209/209 255/255/255 210/210/210
f 212/212/212 256/256/256 213/213/213
f 212/212/212 256/256/256 213/213/213
f 212/212/212 256/256/256 213/213/213
f 213/213/213 255/255/255 209/209/209
f 213/213/213 255/255/255 209/209/209
f 213/213/213 255/255/255 209/209/209
